<svg width="37" height="23" viewBox="0 0 37 23" fill="none" xmlns="http://www.w3.org/2000/svg">
<path d="M36.7765 10.6255C33.293 4.28794 26.3966 0 18.5 0C10.6034 0 3.70511 4.29094 0.223507 10.6261C0.0765614 10.8972 0 11.1966 0 11.5003C0 11.804 0.0765614 12.1034 0.223507 12.3745C3.70704 18.7121 10.6034 23 18.5 23C26.3966 23 33.2949 18.7091 36.7765 12.3739C36.9234 12.1028 37 11.8034 37 11.4997C37 11.196 36.9234 10.8966 36.7765 10.6255ZM18.5 20.125C16.6705 20.125 14.8821 19.6192 13.361 18.6714C11.8398 17.7237 10.6542 16.3767 9.9541 14.8006C9.25399 13.2246 9.0708 11.4904 9.42772 9.81735C9.78463 8.14426 10.6656 6.60743 11.9592 5.4012C13.2529 4.19498 14.9011 3.37352 16.6954 3.04073C18.4897 2.70793 20.3496 2.87873 22.0398 3.53154C23.73 4.18434 25.1747 5.28983 26.1911 6.70821C27.2075 8.12658 27.75 9.79414 27.75 11.5C27.7506 12.6328 27.5118 13.7546 27.0471 14.8013C26.5825 15.848 25.9011 16.799 25.0421 17.6C24.183 18.401 23.1631 19.0363 22.0405 19.4696C20.918 19.9028 19.7149 20.1256 18.5 20.125ZM18.5 5.75C17.9496 5.75717 17.4027 5.83353 16.8742 5.977C17.3098 6.52905 17.5189 7.2084 17.4635 7.89184C17.408 8.57529 17.0917 9.21758 16.5719 9.70223C16.0522 10.1869 15.3633 10.4818 14.6304 10.5335C13.8974 10.5852 13.1688 10.3903 12.5768 9.98404C12.2396 11.1422 12.3005 12.3697 12.7508 13.4939C13.2011 14.6181 14.0181 15.5824 15.0869 16.2509C16.1557 16.9195 17.4224 17.2587 18.7087 17.2208C19.9951 17.1829 21.2363 16.7698 22.2577 16.0397C23.2791 15.3096 24.0293 14.2992 24.4026 13.1507C24.7758 12.0023 24.7535 10.7736 24.3386 9.63758C23.9238 8.50159 23.1373 7.51551 22.0899 6.81813C21.0425 6.12074 19.787 5.74718 18.5 5.75Z" fill="#E880DD"/>
</svg>
